<?xml version="1.0" standalone="no"?>
<!DOCTYPE svg PUBLIC "-//W3C//DTD SVG 20010904//EN"
 "http://www.w3.org/TR/2001/REC-SVG-20010904/DTD/svg10.dtd">
<svg version="1.0" xmlns="http://www.w3.org/2000/svg"
 width="566.000000pt" height="566.000000pt" viewBox="0 0 566.000000 566.000000"
 preserveAspectRatio="xMidYMid meet">
<metadata>
Created by potrace 1.11, written by Peter Selinger 2001-2013
</metadata>
<g transform="translate(0.000000,566.000000) scale(0.100000,-0.100000)"
fill="#000000" stroke="none">
<path d="M2672 5629 c-104 -26 -227 -94 -387 -215 -77 -57 -173 -121 -214
-141 -81 -39 -49 -36 -356 -31 -104 2 -228 -6 -245 -17 -3 -2 -23 -6 -45 -9
-22 -4 -67 -16 -100 -28 -188 -65 -315 -172 -395 -330 -38 -76 -43 -93 -79
-280 -36 -184 -113 -293 -292 -413 -173 -116 -317 -278 -383 -427 -46 -104
-60 -168 -60 -278 -1 -102 1 -110 56 -270 69 -203 87 -282 84 -385 -2 -71 -7
-91 -44 -173 -64 -141 -85 -240 -85 -402 0 -149 15 -228 63 -337 55 -122 94
-169 255 -310 214 -187 309 -297 356 -414 11 -30 38 -112 60 -182 49 -164 88
-235 174 -323 104 -105 222 -173 370 -212 102 -27 152 -32 355 -36 91 -2 188
-10 215 -16 80 -19 220 -91 360 -186 168 -113 208 -136 280 -163 88 -33 91
-34 208 -37 190 -4 330 53 562 230 185 140 197 143 680 161 141 5 153 6 229
31 219 73 412 300 505 595 17 51 38 121 48 153 14 50 28 71 83 125 70 71 67
68 215 185 156 122 202 165 260 241 134 175 179 389 130 624 -10 52 -30 100
-76 187 -100 186 -110 305 -37 449 72 141 82 164 105 255 19 73 25 122 26 215
1 144 -5 195 -37 285 -49 142 -118 228 -261 322 -107 71 -162 115 -231 183
-112 111 -174 209 -224 354 -76 224 -179 411 -273 498 -72 66 -222 135 -326
149 -25 3 -55 8 -66 10 -21 4 -335 5 -395 1 -55 -4 -138 12 -183 35 -23 11
-85 53 -137 93 -196 148 -284 196 -430 235 -88 23 -225 23 -318 -1z"/>
</g>
</svg>
